<?xml version="1.0" standalone="no"?>
<!DOCTYPE svg PUBLIC "-//W3C//DTD SVG 20010904//EN"
 "http://www.w3.org/TR/2001/REC-SVG-20010904/DTD/svg10.dtd">
<svg version="1.0" xmlns="http://www.w3.org/2000/svg"
 width="257.000000pt" height="57.000000pt" viewBox="0 0 257.000000 57.000000"
 preserveAspectRatio="xMidYMid meet">

<g transform="translate(0.000000,57.000000) scale(0.100000,-0.100000)"
fill="#000000" stroke="none">
<path d="M808 293 c2 -71 5 -129 7 -131 1 -1 10 0 19 4 14 5 16 24 16 130 0
123 0 124 -23 124 -23 0 -23 0 -19 -127z"/>
<path d="M1364 399 c-101 -29 -124 -160 -39 -218 29 -19 44 -23 85 -19 60 6
95 34 111 89 10 32 9 43 -10 82 -28 57 -86 84 -147 66z m85 -38 c46 -46 32
-156 -20 -175 -86 -30 -142 82 -85 169 21 32 77 34 105 6z"/>
<path d="M177 389 c-30 -17 -57 -88 -57 -149 0 -67 7 -80 42 -73 23 4 26 8 18
28 -11 28 9 36 71 28 36 -5 40 -8 35 -28 -5 -18 -1 -24 16 -29 33 -8 40 5 40
77 -1 68 -10 96 -45 135 -23 24 -87 30 -120 11z m98 -29 c13 -14 19 -37 19
-68 l1 -47 -65 0 c-61 0 -65 2 -68 24 -12 82 65 144 113 91z"/>
<path d="M2213 364 c-3 -8 2 -23 11 -32 15 -15 17 -15 32 0 21 21 11 48 -16
48 -11 0 -23 -7 -27 -16z"/>
<path d="M1622 314 c-12 -8 -22 -10 -22 -5 0 6 -11 11 -25 11 -28 0 -29 -8
-19 -97 4 -32 12 -53 19 -53 7 0 16 23 21 53 8 45 12 52 32 51 18 0 22 5 22
28 0 33 1 32 -28 12z"/>
<path d="M2117 323 c-4 -3 -26 -6 -48 -5 -41 2 -41 2 -35 -29 3 -17 6 -51 6
-75 0 -31 4 -44 14 -44 18 0 26 22 26 69 0 40 14 61 42 61 24 0 33 -43 19 -90
-14 -49 -14 -50 8 -50 26 0 31 9 38 69 5 44 3 52 -20 75 -27 27 -39 31 -50 19z"/>
<path d="M2340 323 c-55 -22 -66 -111 -18 -146 23 -17 34 -19 64 -11 20 5 43
19 52 32 14 21 13 22 -11 22 -17 0 -28 -7 -32 -20 -8 -24 -50 -27 -59 -4 -9
24 -7 73 4 95 15 28 48 24 56 -6 4 -15 13 -25 23 -25 40 0 34 33 -10 55 -29
16 -44 17 -69 8z"/>
<path d="M376 243 c-3 -42 -5 -78 -3 -79 2 -2 13 -1 25 3 19 5 22 12 22 59 0
41 4 56 16 61 31 12 38 -27 18 -99 -4 -14 1 -18 20 -18 23 0 25 4 32 60 6 51
10 60 26 60 18 0 19 -6 16 -47 -3 -27 -8 -56 -12 -65 -7 -15 -3 -18 17 -18 29
0 37 16 37 76 0 73 -10 83 -83 82 -34 0 -68 -6 -76 -12 -11 -8 -15 -8 -18 2
-3 6 -10 12 -17 12 -9 0 -15 -25 -20 -77z"/>
<path d="M626 304 c-14 -36 -6 -104 14 -124 23 -23 60 -26 78 -8 10 10 15 10
20 1 15 -25 29 4 36 75 l7 72 -25 0 c-25 0 -26 -3 -26 -54 0 -65 -19 -93 -52
-75 -16 9 -19 18 -16 52 3 23 8 50 12 60 7 14 3 17 -17 17 -14 0 -28 -7 -31
-16z"/>
<path d="M886 305 c-14 -37 -6 -105 14 -125 22 -22 50 -26 68 -8 18 18 23 4
11 -30 -12 -36 -28 -41 -36 -12 -6 21 -28 26 -52 11 -23 -15 24 -53 61 -49 52
5 72 44 77 145 3 84 3 85 -20 81 -21 -3 -23 -8 -21 -45 4 -53 -12 -85 -41 -81
-19 3 -22 9 -21 43 0 22 2 49 5 60 5 25 -35 34 -45 10z"/>
<path d="M1079 300 l-24 -19 25 -1 25 -1 -23 -19 c-16 -14 -22 -28 -20 -47 4
-36 38 -51 100 -46 38 4 47 9 52 27 7 29 -8 83 -30 107 -22 25 -75 24 -105 -1z
m91 -16 c0 -12 -6 -15 -22 -10 -13 3 -27 6 -31 6 -5 0 -5 5 -2 10 10 17 55 12
55 -6z m-6 -40 c24 -23 3 -56 -32 -52 -20 2 -28 9 -30 27 -6 38 33 54 62 25z"/>
<path d="M1681 293 c-12 -14 -21 -35 -21 -45 0 -24 31 -78 45 -78 5 0 2 -5 -7
-11 -51 -29 18 -85 77 -63 34 14 64 128 50 193 -6 28 -8 29 -65 30 -52 0 -61
-2 -79 -26z m97 -5 c20 -20 15 -86 -7 -98 -25 -13 -27 -13 -45 6 -19 18 -21
75 -4 92 7 7 19 12 28 12 9 0 21 -5 28 -12z m2 -137 c0 -11 -8 -27 -17 -36
-16 -16 -17 -16 -29 0 -20 27 -6 47 39 54 4 0 7 -8 7 -18z"/>
<path d="M1874 303 c-16 -17 -16 -18 -1 -21 15 -3 14 -7 -4 -32 -13 -17 -19
-35 -15 -47 8 -24 49 -45 72 -36 9 3 30 6 47 7 22 1 33 6 35 19 7 34 -8 87
-30 107 -27 25 -80 26 -104 3z m90 -18 c3 -9 0 -15 -8 -15 -24 0 -46 12 -40
21 9 14 41 10 48 -6z m-8 -39 c27 -20 7 -51 -32 -51 -24 0 -30 5 -32 27 -3 25
2 29 39 37 3 0 14 -5 25 -13z"/>
<path d="M2220 235 c0 -57 3 -75 14 -75 20 0 26 23 26 91 0 52 -2 59 -20 59
-18 0 -20 -7 -20 -75z"/>
</g>
</svg>
