<?xml version="1.0" standalone="no"?>
<!DOCTYPE svg PUBLIC "-//W3C//DTD SVG 20010904//EN"
 "http://www.w3.org/TR/2001/REC-SVG-20010904/DTD/svg10.dtd">
<svg version="1.0" xmlns="http://www.w3.org/2000/svg"
 width="2832.000000pt" height="599.000000pt" viewBox="0 0 2832.000000 599.000000"
 preserveAspectRatio="xMidYMid meet">

<g transform="translate(0.000000,599.000000) scale(0.100000,-0.100000)"
fill="#000000" stroke="none">
<path d="M9512 4676 c-166 -16 -226 -26 -233 -36 -5 -9 -6 -66 -3 -130 3 -63
21 -635 40 -1270 27 -906 38 -1158 48 -1168 11 -11 41 -11 180 1 92 8 171 18
176 23 6 6 25 500 44 1154 19 630 38 1206 41 1281 5 118 4 138 -10 153 -19 19
0 19 -283 -8z"/>
<path d="M15170 4534 c-360 -46 -669 -209 -866 -458 -238 -300 -324 -656 -257
-1066 102 -625 636 -1033 1318 -1007 233 9 397 51 595 153 296 153 500 391
605 707 106 319 78 693 -73 994 -171 338 -491 571 -896 654 -98 20 -344 33
-426 23z m334 -250 c369 -94 609 -496 609 -1019 0 -527 -230 -913 -603 -1012
-88 -23 -281 -23 -370 0 -202 53 -367 192 -468 392 -98 197 -148 498 -123 747
47 464 269 796 595 889 81 23 274 25 360 3z"/>
<path d="M3375 4510 c-528 -60 -858 -410 -989 -1050 -58 -286 -83 -740 -52
-965 28 -205 98 -438 136 -450 22 -7 520 83 538 97 6 6 12 16 12 23 0 7 -31
107 -70 222 -38 114 -72 227 -76 249 l-6 42 228 7 c243 8 992 -9 1006 -23 10
-10 -50 -237 -102 -386 -36 -100 -40 -120 -28 -132 20 -20 507 -105 530 -93
10 5 18 12 18 14 0 3 14 58 30 124 17 65 42 185 57 267 23 132 26 176 27 384
1 139 -5 280 -12 345 -77 633 -304 1055 -666 1237 -153 77 -377 111 -581 88z
m240 -255 c72 -19 156 -63 220 -116 233 -193 374 -645 336 -1082 -6 -80 -16
-144 -23 -148 -21 -13 -397 -21 -856 -18 -379 3 -464 6 -471 18 -22 35 -42
389 -30 546 30 407 238 721 530 799 72 20 220 20 294 1z"/>
<path d="M23725 4282 c-68 -33 -127 -92 -158 -161 -16 -35 -22 -66 -22 -126 0
-94 21 -148 81 -215 59 -65 141 -100 235 -100 64 0 85 5 137 30 114 57 175
153 176 275 1 135 -59 236 -176 294 -52 26 -72 31 -137 31 -63 0 -86 -5 -136
-28z"/>
<path d="M17737 3746 c-121 -69 -245 -177 -341 -296 l-28 -35 7 136 c5 111 3
138 -8 148 -21 17 -484 -12 -504 -31 -11 -12 -7 -130 32 -774 25 -417 47 -769
50 -780 3 -12 11 -24 19 -27 24 -9 310 14 323 26 7 8 19 161 35 447 23 430 24
436 50 490 63 130 153 193 273 194 56 1 77 -3 105 -21 68 -43 78 -47 95 -33
13 11 15 54 15 294 0 282 -3 306 -35 306 -6 0 -46 -20 -88 -44z"/>
<path d="M25005 3736 c-172 -34 -310 -109 -435 -235 -181 -184 -273 -441 -257
-716 8 -131 36 -235 94 -348 38 -74 65 -110 138 -183 76 -77 105 -98 185 -137
144 -71 197 -82 385 -81 140 0 172 4 260 27 125 34 280 108 365 176 124 99
214 234 227 340 5 42 3 50 -13 54 -34 10 -449 18 -461 9 -7 -4 -17 -31 -22
-58 -28 -145 -116 -274 -226 -332 -40 -20 -64 -26 -120 -26 -157 0 -259 106
-310 324 -23 96 -32 365 -16 483 52 386 222 581 453 517 129 -36 237 -211 238
-382 0 -123 -9 -120 251 -91 148 17 219 29 229 39 33 33 -50 243 -141 356
-100 125 -232 207 -399 248 -110 28 -325 35 -425 16z"/>
<path d="M22628 3730 c-120 -21 -260 -98 -332 -182 l-35 -41 -3 84 -3 84 -75
0 c-121 -1 -398 -27 -415 -39 -14 -10 -13 -86 16 -771 24 -598 34 -763 45
-774 12 -13 35 -13 171 -2 109 9 163 17 173 27 11 11 19 101 36 452 l22 437
32 90 c62 175 144 291 236 336 38 18 58 21 122 17 87 -5 139 -27 189 -80 118
-123 135 -433 44 -803 -33 -135 -91 -305 -127 -377 -27 -53 -30 -81 -11 -95
14 -12 412 -54 432 -47 32 13 152 389 185 582 36 204 22 489 -31 652 -89 272
-287 431 -564 453 -33 3 -81 2 -107 -3z"/>
<path d="M10204 3695 c-58 -88 -137 -327 -170 -510 -24 -138 -24 -416 0 -540
41 -212 102 -347 203 -449 103 -105 210 -154 358 -163 181 -10 331 46 463 173
42 41 78 74 79 74 4 0 -11 -97 -33 -221 -40 -231 -96 -379 -176 -465 -95 -103
-208 -78 -269 61 -18 40 -23 73 -26 165 -5 135 -8 156 -27 163 -17 7 -515
-120 -533 -135 -21 -17 -15 -47 26 -132 198 -406 708 -533 1059 -263 244 188
398 596 453 1197 14 156 17 622 5 823 -7 126 -10 139 -30 151 -16 10 -68 11
-241 4 -236 -9 -251 -13 -240 -62 18 -74 27 -208 32 -471 l6 -301 -27 -85
c-60 -199 -177 -363 -276 -389 -54 -15 -136 -8 -179 15 -82 42 -157 155 -187
282 -12 52 -15 100 -11 208 8 215 57 386 181 633 59 119 64 148 23 157 -12 3
-113 27 -224 55 -111 27 -207 50 -212 50 -6 0 -18 -11 -27 -25z"/>
<path d="M12451 3705 c-156 -28 -295 -99 -401 -205 -109 -108 -171 -236 -124
-254 13 -5 345 -44 392 -46 4 -1 -32 -15 -79 -33 -251 -96 -389 -298 -389
-567 0 -162 38 -249 156 -359 159 -150 435 -213 664 -152 66 17 188 69 282
119 3 1 4 -14 1 -35 -3 -26 -1 -43 8 -50 8 -7 100 -16 224 -22 177 -9 212 -8
224 4 43 42 76 488 52 695 -44 372 -200 665 -429 804 -163 99 -382 137 -581
101z m365 -230 c106 -31 182 -154 218 -352 l5 -32 -62 34 c-34 19 -102 46
-152 61 -83 25 -104 28 -261 28 l-171 1 7 25 c52 180 241 287 416 235z m-61
-480 c86 -23 143 -53 198 -104 75 -70 91 -108 84 -208 -6 -103 -37 -171 -106
-236 -91 -85 -196 -122 -330 -115 -67 4 -97 10 -137 31 -88 45 -144 125 -164
237 -49 268 179 466 455 395z"/>
<path d="M19373 3700 c-101 -10 -189 -20 -198 -24 -10 -4 -15 -19 -15 -50 l0
-45 -64 29 c-157 72 -347 96 -505 66 -234 -44 -438 -211 -542 -444 -94 -208
-99 -475 -13 -694 76 -194 215 -343 405 -432 221 -104 528 -81 724 54 26 18
48 30 51 28 6 -6 -14 -158 -32 -248 -66 -324 -209 -494 -377 -449 -54 14 -119
81 -141 145 -21 61 -31 208 -18 292 15 102 26 99 -248 80 -176 -12 -236 -19
-247 -31 -13 -13 -13 -24 2 -98 62 -304 193 -491 392 -560 167 -58 455 -21
631 82 81 48 218 189 270 278 177 302 241 754 213 1506 -15 392 -23 499 -41
519 -15 19 -11 19 -247 -4z m-322 -287 c77 -38 155 -112 189 -179 21 -44 25
-71 37 -284 14 -256 10 -329 -29 -434 -30 -81 -108 -164 -190 -202 -56 -25
-74 -28 -163 -28 -88 0 -107 3 -158 26 -115 54 -212 181 -257 338 -31 105 -38
308 -16 405 36 150 120 276 230 340 69 41 129 55 216 52 62 -2 87 -8 141 -34z"/>
<path d="M20517 3710 c-81 -13 -216 -61 -285 -101 -138 -81 -303 -292 -273
-348 7 -12 15 -21 19 -21 25 0 386 -41 390 -44 2 -2 -12 -7 -30 -11 -18 -4
-71 -25 -118 -47 -151 -72 -271 -219 -308 -378 -19 -81 -25 -192 -12 -260 45
-249 314 -432 635 -432 131 0 238 27 379 97 l88 43 -5 -33 c-10 -60 -4 -62
233 -74 170 -9 217 -8 227 2 7 6 22 71 34 142 27 156 32 478 10 610 -55 335
-192 591 -385 724 -66 46 -182 98 -258 116 -79 19 -264 27 -341 15z m380 -248
c51 -27 89 -71 124 -147 30 -63 59 -164 59 -202 l0 -23 -37 23 c-118 74 -287
111 -475 105 -88 -3 -128 -1 -128 6 0 6 13 38 29 71 26 57 91 128 139 154 81
43 217 49 289 13z m-98 -467 c134 -32 254 -125 280 -217 16 -56 1 -179 -28
-236 -66 -130 -213 -212 -380 -212 -145 0 -244 59 -299 178 -23 50 -27 70 -27
157 0 81 4 109 21 146 73 158 241 229 433 184z"/>
<path d="M6539 3700 c-114 -18 -245 -75 -343 -148 l-40 -30 -41 42 c-117 116
-298 146 -492 81 -97 -33 -151 -65 -224 -133 l-59 -54 0 30 c0 58 -13 121 -26
126 -7 3 -81 10 -164 17 -128 10 -154 10 -165 -2 -11 -11 -23 -187 -55 -778
-37 -666 -40 -765 -28 -778 13 -12 43 -11 239 7 133 13 229 27 237 34 10 10 9
103 -8 500 l-20 487 42 72 c53 92 141 181 194 197 62 19 113 0 167 -60 68 -76
82 -131 81 -325 -1 -215 -48 -485 -119 -696 -28 -83 -30 -102 -12 -117 7 -6
116 -19 242 -28 213 -16 229 -16 240 -1 22 30 55 230 86 527 19 175 17 500 -3
580 -9 35 -15 67 -13 70 2 4 29 19 61 35 137 69 275 31 338 -94 32 -62 46
-134 53 -266 12 -237 -44 -510 -159 -770 -50 -111 -57 -151 -31 -159 32 -10
451 -46 467 -40 29 11 96 212 136 410 96 481 50 878 -129 1101 -50 61 -144
127 -212 147 -65 20 -171 27 -240 16z"/>
<path d="M7562 3688 c-23 -30 -85 -167 -112 -249 -61 -185 -75 -290 -74 -544
0 -216 2 -236 27 -330 15 -55 47 -142 73 -194 83 -167 232 -291 404 -336 79
-21 234 -23 310 -5 129 30 259 113 340 216 l45 57 5 -106 c4 -76 9 -110 20
-121 13 -12 34 -12 165 0 92 9 155 20 163 28 9 9 26 213 61 752 27 406 46 745
44 752 -7 17 -28 20 -208 32 -236 15 -282 14 -293 -7 -5 -11 -2 -193 8 -443
l17 -425 -33 -103 c-82 -253 -190 -367 -345 -365 -175 3 -282 80 -340 244 -20
56 -23 83 -23 224 0 184 13 276 59 430 43 139 88 238 158 344 84 125 91 120
-213 146 -223 18 -245 19 -258 3z"/>
<path d="M23612 3607 c-17 -21 3 -1546 21 -1564 17 -17 345 -49 359 -35 10 10
127 1405 128 1524 0 35 -5 50 -17 56 -10 5 -81 12 -158 16 -77 3 -181 9 -230
12 -74 5 -93 4 -103 -9z"/>
</g>
</svg>
